<svg xmlns="http://www.w3.org/2000/svg" viewBox="0 0 40 40" width="40" height="40">
  <!-- Base shadow -->
  <ellipse cx="20" cy="38" rx="16" ry="3" fill="#000000" opacity="0.3"/>
  <!-- Stump body -->
  <path d="M6 36 L7 14 Q7 6 20 6 Q33 6 33 14 L34 36 Z" fill="#3a2210"/>
  <!-- Wood texture lines -->
  <path d="M10 22 Q20 20 30 22" stroke="#2a1808" stroke-width="1.5" fill="none" opacity="0.6"/>
  <path d="M9 27 Q20 25 31 27" stroke="#2a1808" stroke-width="1.5" fill="none" opacity="0.6"/>
  <path d="M8 32 Q20 30 32 32" stroke="#2a1808" stroke-width="1.5" fill="none" opacity="0.6"/>
  <!-- Bark detail -->
  <path d="M7 14 Q10 10 20 8 Q30 10 33 14" stroke="#4a2a10" stroke-width="2" fill="none"/>
  <!-- Top rings -->
  <ellipse cx="20" cy="8" rx="11" ry="3" fill="#5a3a18"/>
  <ellipse cx="20" cy="8" rx="7" ry="2" fill="#4a2a10" opacity="0.5"/>
  <ellipse cx="20" cy="8" rx="3" ry="1" fill="#3a1a08" opacity="0.4"/>
  <!-- Roots -->
  <path d="M6 36 Q3 38 2 39" stroke="#3a2210" stroke-width="3" fill="none" stroke-linecap="round"/>
  <path d="M34 36 Q37 38 38 39" stroke="#3a2210" stroke-width="3" fill="none" stroke-linecap="round"/>
  <path d="M15 37 Q13 39 12 39" stroke="#3a2210" stroke-width="2.5" fill="none" stroke-linecap="round"/>
  <path d="M25 37 Q27 39 28 39" stroke="#3a2210" stroke-width="2.5" fill="none" stroke-linecap="round"/>
  <!-- Moss -->
  <ellipse cx="12" cy="16" rx="5" ry="2" fill="#224411" opacity="0.5"/>
  <ellipse cx="30" cy="20" rx="3" ry="1.5" fill="#1a3308" opacity="0.4"/>
</svg>
