<svg xmlns="http://www.w3.org/2000/svg" viewBox="0 0 48 64" width="48" height="64">
  <!-- Schatten -->
  <ellipse cx="24" cy="60" rx="16" ry="3" fill="#000000" opacity="0.35"/>
  <!-- Rüstung - Körper -->
  <path d="M10 24 L8 58 L40 58 L38 24 Z" fill="#4a4a55"/>
  <!-- Rüstung Details -->
  <path d="M12 28 L36 28" stroke="#5a5a65" stroke-width="1.5"/>
  <path d="M11 34 L37 34" stroke="#5a5a65" stroke-width="1.5"/>
  <path d="M10 40 L38 40" stroke="#5a5a65" stroke-width="1.5"/>
  <!-- Brustpanzer -->
  <path d="M14 24 L18 38 L30 38 L34 24 Z" fill="#5a5a68"/>
  <path d="M18 28 L30 28" stroke="#6a6a78" stroke-width="1"/>
  <!-- Schulterpanzer -->
  <path d="M10 24 Q8 18 14 18 L18 22 L14 26 Z" fill="#5a5a65"/>
  <path d="M38 24 Q40 18 34 18 L30 22 L34 26 Z" fill="#5a5a65"/>
  <!-- Helm -->
  <path d="M12 18 Q12 6 24 4 Q36 6 36 18 Z" fill="#5a5a65"/>
  <!-- Helm-Visier -->
  <rect x="16" y="10" width="16" height="8" fill="#3a3a44" rx="1"/>
  <!-- Augen (blau glühend) -->
  <ellipse cx="20" cy="14" rx="2.5" ry="1.8" fill="#4488ff"/>
  <ellipse cx="28" cy="14" rx="2.5" ry="1.8" fill="#4488ff"/>
  <!-- Hammer (rechts) -->
  <rect x="34" y="20" width="6" height="24" fill="#886633" rx="2"/>
  <rect x="36" y="18" width="8" height="5" fill="#996644" rx="2"/>
  <!-- Hammer Griff wrap -->
  <rect x="34" y="28" width="6" height="2" fill="#aa8844"/>
  <rect x="34" y="34" width="6" height="2" fill="#aa8844"/>
  <!-- Stiefel -->
  <rect x="12" y="56" width="10" height="6" fill="#3a3a44" rx="2"/>
  <rect x="26" y="56" width="10" height="6" fill="#3a3a44" rx="2"/>
  <!-- Schild (links) -->
  <ellipse cx="8" cy="32" rx="4" ry="8" fill="#3a3a50"/>
  <ellipse cx="8" cy="32" rx="2.5" ry="6" fill="#4a4a60"/>
</svg>
